<svg width="40" height="40" viewBox="0 0 40 40" fill="none" xmlns="http://www.w3.org/2000/svg">
<g clip-path="url(#clip0)">
<path d="M31.006 24.2111C30.2914 23.3541 29.4505 22.6226 28.6549 21.8458C27.9371 21.1457 27.8918 20.7396 28.4688 19.9315C29.0986 19.0495 29.7758 18.2014 30.4113 17.3235C31.0045 16.503 31.6108 15.6847 31.923 14.7023C32.121 14.0772 31.9459 13.8012 31.3049 13.6917C31.1945 13.6726 31.0803 13.6716 30.9679 13.6716L27.1653 13.6671C26.697 13.6601 26.4381 13.8643 26.2724 14.2794C26.0488 14.8405 25.8183 15.4011 25.5519 15.9426C24.9475 17.1703 24.2725 18.3569 23.3262 19.3617C23.1175 19.5833 22.8867 19.8633 22.538 19.7479C22.1017 19.5888 21.9731 18.87 21.9804 18.627L21.9766 14.2379C21.8921 13.6109 21.753 13.3313 21.1305 13.2095L17.1804 13.2102C16.6531 13.2102 16.3887 13.4139 16.1072 13.7437C15.9448 13.9342 15.8958 14.0578 16.2296 14.121C16.8852 14.2454 17.2545 14.6697 17.3525 15.327C17.5097 16.3774 17.4988 17.4319 17.4082 18.4865C17.3816 18.7944 17.3286 19.1015 17.2065 19.389C17.0155 19.841 16.7071 19.933 16.3019 19.6549C15.9351 19.4032 15.6774 19.0481 15.4252 18.6914C14.4779 17.3528 13.722 15.9093 13.1057 14.3924C12.9276 13.9541 12.6205 13.6885 12.1561 13.6813C11.0153 13.6631 9.87416 13.6601 8.7333 13.6823C8.04685 13.6952 7.84215 14.0285 8.12171 14.6508C9.36429 17.4147 10.7474 20.1019 12.5528 22.5497C13.4798 23.806 14.544 24.915 15.9189 25.7009C17.4771 26.5918 19.1545 26.8599 20.9211 26.7774C21.7483 26.7386 21.9968 26.5234 22.0351 25.6989C22.0609 25.1349 22.1249 24.574 22.4032 24.0671C22.6763 23.5697 23.0899 23.4749 23.5667 23.7843C23.8052 23.9393 24.0061 24.1365 24.1959 24.3444C24.6615 24.8538 25.1104 25.3786 25.5937 25.8708C26.1998 26.4876 26.9178 26.852 27.8207 26.7776L31.3156 26.7784C31.8787 26.7416 32.1707 26.0511 31.8474 25.4226C31.6203 24.9824 31.3223 24.5904 31.006 24.2111Z" fill="#9FB4B5"/>
</g>
<defs>
<clipPath id="clip0">
<rect width="24" height="24" fill="white" transform="translate(8 8)"/>
</clipPath>
</defs>
</svg>
