<svg width="81" height="81" viewBox="0 0 81 81" fill="none" xmlns="http://www.w3.org/2000/svg">
<circle cx="40.6719" cy="40.9594" r="39.5" fill="#E2000F" stroke="#E2000F"/>
<g clip-path="url(#clip0)">
<path d="M57.2058 57.2886L54.7717 30.1821C54.7053 29.4418 54.0849 28.8748 53.3418 28.8748H48.3223V26.6109C48.3223 22.3919 44.89 18.9594 40.6711 18.9594C36.4524 18.9594 33.0205 22.3919 33.0205 26.6109V28.8748H27.9976C27.2544 28.8748 26.634 29.4418 26.5676 30.1821L24.124 57.3952C24.088 57.7968 24.2224 58.1948 24.4944 58.4923C24.7664 58.7897 25.151 58.9592 25.554 58.9592H55.7856H55.7894C56.5825 58.9592 57.2251 58.3163 57.2251 57.5234C57.2249 57.4436 57.2184 57.3649 57.2058 57.2886ZM35.8919 26.6109C35.8919 23.9752 38.0359 21.8308 40.6713 21.8308C43.3069 21.8308 45.4511 23.9752 45.4511 26.6109V28.8748H35.8919V26.6109ZM27.1245 56.0879L29.3102 31.7462H33.0205V34.3137C33.0205 35.1066 33.6631 35.7494 34.4562 35.7494C35.2493 35.7494 35.8919 35.1066 35.8919 34.3137V31.7462H45.4511V34.3137C45.4511 35.1066 46.0937 35.7494 46.8868 35.7494C47.6799 35.7494 48.3225 35.1066 48.3225 34.3137V31.7462H52.0293L54.2151 56.0879H27.1245Z" fill="white"/>
</g>
<defs>
<clipPath id="clip0">
<rect width="40" height="40" fill="white" transform="translate(20.6719 18.9594)"/>
</clipPath>
</defs>
</svg>
