<svg width="78" height="102" viewBox="0 0 78 102" fill="none" xmlns="http://www.w3.org/2000/svg">
<path fill-rule="evenodd" clip-rule="evenodd" d="M36.7829 16.6119C36.8483 16.2653 36.9137 15.7774 36.9791 15.1741C37.0184 14.789 36.0897 14.3268 36.2205 13.8775C37.3846 9.70525 38.5749 1.54052 38.9411 0C39.2943 1.52768 40.4977 9.70525 41.6618 13.8775C41.7926 14.3268 40.8508 14.789 40.8901 15.1741C40.9555 15.7774 41.0209 16.2653 41.0863 16.6119C41.5179 16.6119 41.9627 16.7146 42.3681 16.9457C48.9998 20.5916 53.5124 25.6239 56.1939 31.7603L56.1677 31.709C58.1821 32.2995 60.0002 33.0697 61.6352 34.0326C64.4475 35.6116 67.0112 38.3717 68.5677 41.0804C73.3027 41.6324 77.7238 44.8804 77.9854 49.8614C78.247 54.9836 74.9639 58.5011 69.7842 58.4369C69.4441 58.4369 69.104 58.4112 68.7639 58.3727C69.6926 59.3484 70.6605 60.2984 71.5631 61.2997C74.9639 65.0868 76.9259 68.9638 76.7951 74.1245V73.9448C77.1875 76.4224 77.3445 78.746 77.2922 80.9284C77.3445 82.7385 77.1221 84.5743 76.5989 86.3588C76.4289 86.3973 76.2589 86.4358 76.0888 86.4871L71.9535 95.1654L38.9935 90.5498L5.91679 95.1654L1.89811 86.4871C1.72806 86.4358 1.55802 86.3973 1.38798 86.3588C0.864774 84.5743 0.64241 82.7385 0.694731 80.9284C0.62933 78.746 0.799373 76.4224 1.19178 73.9448V74.1245C1.06098 68.9638 3.00992 65.0868 6.42384 61.2997C7.32638 60.2984 8.29431 59.3484 9.223 58.3727C8.88292 58.4112 8.54283 58.4241 8.21583 58.4369C3.03608 58.5011 -0.24704 54.9836 0.0145638 49.8614C0.263087 44.8804 4.69726 41.6324 9.4192 41.0804C10.9757 38.3717 13.5395 35.6244 16.3517 34.0326C17.9736 33.0697 19.8049 32.2995 21.8192 31.709L21.793 31.7603C24.4745 25.6239 28.9871 20.5916 35.6188 16.9457C35.9981 16.7403 36.3905 16.6376 36.7829 16.6119ZM56.4555 32.3765C56.4162 32.2866 56.3901 32.2096 56.3508 32.1198L56.4555 32.3765ZM56.3247 32.0299C56.2985 31.9529 56.2593 31.8758 56.22 31.7988L56.3247 32.0299ZM61.1382 33.763C61.0859 33.7373 61.0205 33.6988 60.9681 33.6731L61.1382 33.763ZM60.615 33.5191C60.4973 33.4677 60.3795 33.4164 60.2749 33.365L60.615 33.5191ZM60.2618 33.365C60.2095 33.3393 60.1572 33.3265 60.0918 33.3008C60.1572 33.3137 60.2095 33.3393 60.2618 33.365ZM59.5555 33.1083C59.3854 33.0569 59.2023 32.9927 59.0323 32.9542C59.2023 32.9927 59.3854 33.0441 59.5555 33.1083ZM21.5445 32.3765L21.6492 32.1198C21.623 32.1968 21.5838 32.2866 21.5445 32.3765ZM21.6884 32.0299C21.7146 31.9529 21.7538 31.8758 21.793 31.7988L21.6884 32.0299ZM16.8618 33.763L17.0319 33.6731C16.9795 33.6988 16.9272 33.7373 16.8618 33.763ZM17.3981 33.5191L17.7382 33.365C17.6205 33.4164 17.5027 33.4677 17.3981 33.5191ZM17.7513 33.365C17.8036 33.3393 17.8559 33.3265 17.9082 33.3008C17.8559 33.3137 17.8036 33.3393 17.7513 33.365ZM18.4445 33.1083C18.6276 33.0569 18.7977 32.9927 18.9808 32.9542C18.7977 32.9927 18.6276 33.0441 18.4445 33.1083Z" fill="#000003"/>
<path fill-rule="evenodd" clip-rule="evenodd" d="M31.6172 57.2447C30.1391 56.6927 28.8311 55.2549 27.5884 54.4975C27.3792 54.3691 27.4838 54.0353 27.7454 54.061C29.7467 54.2664 30.8323 54.7542 31.7087 55.1265C32.5589 55.486 33.1606 55.7299 34.2594 55.5116C34.4817 55.4603 34.6387 55.7299 34.4817 55.8968C33.9454 56.513 32.572 56.4616 31.8788 57.1805C31.8264 57.2576 31.7087 57.2832 31.6172 57.2447Z" fill="#9FB4B5"/>
<path fill-rule="evenodd" clip-rule="evenodd" d="M46.465 70.9153C41.743 70.1322 41.5861 71.968 39.127 72.0065C37.0342 71.9295 34.7975 70.068 31.4228 70.9153C32.3515 69.516 33.8688 67.6931 34.4051 67.1025L37.9106 69.9397H39.9249L43.4696 67.1025C44.019 67.6802 45.5363 69.5032 46.465 70.9153Z" fill="#F9FEFF" stroke="#F9FEFF" stroke-width="0.5" stroke-miterlimit="10"/>
<path fill-rule="evenodd" clip-rule="evenodd" d="M27.3517 64.2385C25.3504 62.377 21.2563 59.3216 25.5728 55.9582C27.3778 58.3588 29.6669 60.2716 31.812 60.4128C33.5386 59.771 33.7871 57.948 36.9918 57.2034C37.2926 55.894 37.6196 53.7244 37.6458 53.2879C37.1357 53.7501 36.6255 54.3663 35.9715 54.4947C34.1665 54.2379 30.0854 51.3238 28.2411 50.1299C28.3589 50.1812 28.4766 50.2069 28.5943 50.2197C31.8251 51.4265 35.3306 52.0812 38.98 52.0812C42.6686 52.0812 46.2133 51.4136 49.4703 50.1941C49.5357 50.1812 49.6011 50.1556 49.6534 50.1299C47.8091 51.3238 43.7281 54.2379 41.923 54.4947C41.269 54.3535 40.7589 53.7373 40.2487 53.2879C40.2749 53.7244 40.6019 55.894 40.9027 57.2034C44.0943 57.9352 44.3428 59.771 46.0694 60.4128C48.2146 60.2716 50.5036 58.3588 52.3087 55.9582C56.6251 59.3345 52.5179 62.3898 50.5167 64.2385C49.0386 65.6121 47.8222 66.6391 46.5795 68.8728C44.6306 66.8188 43.7411 64.1486 41.6221 62.6466C42.1061 63.4168 42.6555 64.1486 42.7078 65.2013C41.7791 65.7918 39.961 67.6019 38.9276 67.6019C37.8943 67.6019 36.0762 65.7918 35.1605 65.2013C35.2129 64.1614 35.7622 63.4168 36.2462 62.6466C34.1141 64.1486 33.2247 66.8188 31.2757 68.8728C30.02 66.729 28.8297 65.6121 27.3517 64.2385Z" fill="#9FB4B5"/>
<path fill-rule="evenodd" clip-rule="evenodd" d="M3.32324 91.9434C-0.157098 86.8421 -1.55583 70.9942 10.9601 64.8277C14.2809 62.7501 19.1803 62.0332 22.7395 63.2329C26.4624 64.4912 28.7409 67.7978 27.758 72.1139C27.5049 69.8461 26.1348 68.0612 23.4096 67.2711C21.2056 66.6419 18.1677 67.6807 16.9764 70.3875C15.5318 73.6648 17.3784 77.1763 20.6397 78.0395C22.7991 78.6101 25.1073 77.8054 27.1177 76.1228C25.7327 79.6635 22.2034 82.1801 17.6614 82.3995C22.1289 82.9409 27.6538 80.2049 30.6172 74.9962C31.4512 73.5331 32.3745 71.1044 33.8786 71.0312C35.6805 70.9288 37.527 72.7577 39.9246 73.0942C40.8777 76.6349 41.2351 81.3022 40.8032 84.8575C39.9246 90.8855 35.0236 100.644 23.4096 101.868C13.0484 102.96 6.80357 97.0448 3.32324 91.9434Z" fill="#000003"/>
<path fill-rule="evenodd" clip-rule="evenodd" d="M74.5454 91.9434C78.0257 86.8421 79.4245 70.9942 66.9086 64.8277C63.5877 62.7501 58.6883 62.0332 55.1291 63.2329C51.4062 64.4912 49.1277 67.7978 50.1106 72.1139C50.3638 69.8461 51.7338 68.0612 54.459 67.2711C56.663 66.6419 59.7009 67.6807 60.8923 70.3875C62.3368 73.6648 60.4902 77.1763 57.2289 78.0395C55.0696 78.6101 52.7613 77.8054 50.7509 76.1228C52.1359 79.6635 55.6652 82.1801 60.2072 82.3995C55.7397 82.9409 50.2148 80.2049 47.2514 74.9962C46.4174 73.5331 45.4941 71.1044 43.9901 71.0312C42.1882 70.9288 40.3416 72.7577 37.944 73.0942C36.9909 76.6349 36.6335 81.3022 37.0654 84.8575C37.944 90.8855 42.8451 100.644 54.459 101.868C64.8202 102.96 71.065 97.0448 74.5454 91.9434Z" fill="#000003"/>
<path fill-rule="evenodd" clip-rule="evenodd" d="M14.9233 50.9501C14.0338 47.0346 9.69124 46.3799 7.31065 49.1657C5.25706 51.5792 7.15369 55.5717 10.3191 55.623C6.9444 56.573 2.27479 55.5331 2.56255 49.9873C2.75875 46.059 6.76128 43.53 10.8815 43.4915H11.0385C12.5689 40.0638 16.2836 36.251 19.6322 35.3652C17.7355 38.0355 16.7807 42.0408 17.0684 45.186C19.1351 46.5211 20.6001 48.6265 20.9271 51.3866C21.6465 49.7562 21.568 47.3941 20.5739 45.2117C24.1448 48.9089 24.1186 54.5832 21.2149 58.4473C15.4465 66.137 9.15495 63.608 3.83133 73.9166L3.84441 73.8781C3.81825 73.9551 3.77901 74.0193 3.75284 74.0835C3.43892 61.9134 16.9115 59.6925 14.9233 50.9501Z" fill="#9FB4B5"/>
<path fill-rule="evenodd" clip-rule="evenodd" d="M74.2595 73.8781L74.2725 73.9166C68.9489 63.608 62.6443 66.137 56.8759 58.4473C53.9721 54.5832 53.9591 48.9089 57.5169 45.2117C56.5228 47.3813 56.4443 49.7562 57.1637 51.3866C57.5038 48.6265 58.9557 46.5211 61.0224 45.186C61.3101 42.0408 60.3553 38.0355 58.4586 35.3652C61.7941 36.251 65.5219 40.0638 67.0392 43.4915H67.2093C71.3295 43.53 75.332 46.059 75.5282 49.9873C75.8029 55.5331 71.1333 56.573 67.7586 55.623C70.924 55.5845 72.8337 51.5792 70.7671 49.1657C68.3865 46.3799 64.0439 47.0346 63.1675 50.9501C61.1793 59.6925 74.6519 61.9134 74.338 74.0835C74.3118 74.0065 74.2856 73.9423 74.2595 73.8781Z" fill="#9FB4B5"/>
<path fill-rule="evenodd" clip-rule="evenodd" d="M21.4157 44.2394C22.3706 32.1207 27.8904 24.0715 36.8895 19.1162C37.4389 19.6297 38.1845 19.9507 39.0085 19.9507C39.8195 19.9507 40.552 19.6426 41.1013 19.1419C50.0613 24.0972 55.5549 32.1336 56.5098 44.2266C56.4967 44.2523 56.4836 44.2651 56.4574 44.2908C51.6963 48.1164 45.614 50.4143 38.9693 50.4143C32.3246 50.4143 26.203 48.1036 21.4157 44.2394Z" fill="#F9FEFF"/>
<path fill-rule="evenodd" clip-rule="evenodd" d="M41.4637 38.0251C41.4637 36.8055 40.4042 34.8799 39.3316 32.9157C39.2139 32.6718 39.0962 32.4408 38.9523 32.2354C38.8084 32.4408 38.6907 32.6718 38.5861 32.9157C37.5004 34.8799 36.454 36.8184 36.454 38.0251C36.454 39.3859 37.5789 40.4899 38.9523 40.4899H38.9785C40.3388 40.4899 41.4637 39.3859 41.4637 38.0251Z" fill="#E2000F"/>
<path fill-rule="evenodd" clip-rule="evenodd" d="M46.002 57.1922C45.2957 56.4733 43.9354 56.5247 43.3991 55.9085C43.2552 55.7416 43.4122 55.472 43.6345 55.5233C44.6548 55.7416 45.2696 55.5105 46.1329 55.1382C47.0092 54.7659 48.1341 54.2653 50.1354 54.0727C50.3839 54.047 50.5017 54.3808 50.2793 54.5092C49.0367 55.2666 47.7286 56.6916 46.2506 57.2564C46.159 57.2821 46.0675 57.2564 46.002 57.1922Z" fill="#9FB4B5"/>
<path fill-rule="evenodd" clip-rule="evenodd" d="M41.2808 37.9103C41.2808 36.7806 40.2998 34.9705 39.2926 33.1475C39.1879 32.9165 39.0833 32.6982 38.9394 32.5185C38.8086 32.7111 38.704 32.9165 38.5863 33.1475C37.5791 34.9705 36.5981 36.7806 36.5981 37.9103C36.5981 39.1812 37.6445 40.2082 38.9263 40.2082H38.9525C40.2474 40.2082 41.2808 39.1812 41.2808 37.9103ZM38.9394 48.8736C38.9394 47.4743 37.8669 46.3061 36.4673 46.1649V46.1521C34.7015 45.9723 33.001 45.5872 31.3791 45.048C30.9082 44.894 30.6597 44.3933 30.8166 43.9312C30.9736 43.469 31.4837 43.2251 31.9546 43.3791C33.2496 43.8156 34.5968 44.1366 35.9964 44.3163C36.0487 44.3163 36.088 44.3163 36.1403 44.3163C36.8335 44.3163 37.4614 44.0724 37.9453 43.6616V41.492C36.4019 41.0684 35.277 39.6819 35.277 38.0387C35.277 37.1657 35.6301 36.2029 36.0356 35.3043L38.9263 30.2334L41.804 35.3043C42.2095 36.1901 42.5626 37.1786 42.5626 38.0387C42.5626 39.7332 41.3462 41.1582 39.7373 41.5177V43.5075C40.2344 43.9953 40.9407 44.3034 41.6993 44.3034C41.8432 44.3034 41.974 44.2906 42.1048 44.2778C43.3736 44.098 44.6031 43.8028 45.7934 43.4176C46.2643 43.2636 46.7744 43.5075 46.9314 43.9697C47.0884 44.4318 46.8268 44.9325 46.3559 45.0865C44.8255 45.5872 43.2297 45.9338 41.5685 46.1264V46.1392C40.1166 46.2034 38.9525 47.3973 38.9394 48.8736V48.925V48.8736Z" fill="#000003"/>
<path fill-rule="evenodd" clip-rule="evenodd" d="M58.4974 90.8241L58.4843 90.4133C58.262 89.2322 57.6865 88.1924 56.7185 87.4221C55.7898 86.6904 54.6911 86.3695 53.54 86.3053C47.7455 85.0087 44.5932 81.7094 44.0961 76.2277C43.5991 82.056 46.3852 85.0985 49.8907 87.1397L49.8122 87.1911H49.7991C40.6299 86.6262 39.0995 80.5668 40.002 75.0338C40.0674 74.7642 40.1328 74.4946 40.1982 74.2379C42.2911 73.9298 43.9261 72.3379 45.5088 72.4278C46.8299 72.5048 47.6409 74.623 48.3734 75.9068C50.9894 80.477 55.8291 82.8905 59.7531 82.4026C55.7506 82.2101 52.6637 80.002 51.4472 76.8953C53.213 78.3716 55.2405 79.0777 57.1371 78.577C59.9886 77.8196 61.6105 74.7386 60.3548 71.8629C59.3084 69.488 56.64 68.5637 54.7042 69.1285C52.2843 69.8346 51.094 71.4008 50.8586 73.3906C50.0084 69.6035 52.0097 66.7022 55.2797 65.5982C58.4059 64.5455 62.6962 65.1745 65.6261 66.9975C74.0629 71.1569 76.8751 81.2216 72.781 88.7316C72.2055 88.1154 71.5253 87.6019 70.7405 87.2039C69.524 86.5877 68.1768 86.2924 66.738 86.2924C65.5869 86.2924 64.4751 86.485 63.4287 86.8701C62.4346 87.2296 61.5189 87.7431 60.6818 88.3978C59.8839 89.0268 59.1907 89.7714 58.6151 90.6059L58.4974 90.8241Z" fill="#F9FEFF"/>
<path fill-rule="evenodd" clip-rule="evenodd" d="M21.164 92.6856L21.0332 91.7228C20.8631 91.0681 20.6015 90.4518 20.2353 89.8613C19.5289 88.7188 18.5479 87.8458 17.3446 87.2168C16.1281 86.6006 14.7808 86.3053 13.342 86.3053C12.191 86.3053 11.0792 86.4979 10.0327 86.883C9.03865 87.2424 8.12303 87.7559 7.2859 88.4107C6.8935 88.7316 6.51417 89.0654 6.17409 89.4377L5.92556 89.7329L5.80784 89.8613L5.79476 89.8742C0.732735 82.2743 3.38801 71.3623 12.2564 66.9975C15.1732 65.1745 19.4766 64.5455 22.6028 65.5982C25.8728 66.7022 27.8741 69.6035 27.0108 73.3906C26.7884 71.4008 25.5851 69.8346 23.1914 69.1414C21.2555 68.5893 18.5872 69.5008 17.5408 71.8758C16.272 74.7514 17.8939 77.8324 20.7585 78.5899C22.6551 79.0905 24.6825 78.3845 26.4484 76.9081C25.2319 80.0148 22.1319 82.2229 18.1424 82.4155C22.0665 82.8905 26.9192 80.4898 29.5222 75.9196C30.2547 74.6359 31.0657 72.5048 32.3868 72.4406C33.9695 72.3508 35.5914 73.9555 37.6973 74.2507C38.5344 77.3575 38.8484 81.4527 38.469 84.5722C38.4429 84.508 38.4298 84.4567 38.4036 84.4053C38.0505 83.5324 37.5142 82.7493 36.8471 82.056C36.1146 81.3114 35.2251 80.7337 34.218 80.3229C33.1323 79.8736 31.9289 79.6811 30.634 79.6682C29.3914 79.6682 28.2273 79.8608 27.1678 80.2844C26.1606 80.6824 25.2581 81.2473 24.4994 81.9918C23.78 82.7107 23.2306 83.5452 22.8644 84.4823C22.4981 85.3938 22.315 86.3566 22.315 87.358C22.315 88.2438 22.4589 89.1039 22.7467 89.9255C23.0213 90.6701 23.3745 91.3762 23.8454 92.0437L22.6813 92.1721C22.2496 92.262 21.818 92.3903 21.3994 92.5572L21.164 92.6856Z" fill="#F9FEFF"/>
<path fill-rule="evenodd" clip-rule="evenodd" d="M5.49861 90.7729C2.44167 86.2969 1.2131 72.3915 12.2064 66.9809C15.1233 65.1579 19.4266 64.5289 22.5528 65.5816C25.8228 66.6856 27.8241 69.5869 26.9608 73.374C26.7385 71.3842 25.5351 69.818 23.1414 69.1247C21.2055 68.5727 18.5372 69.4842 17.4908 71.8592C16.222 74.7348 17.8439 77.8158 20.7085 78.5732C22.6051 79.0739 24.6325 78.3678 26.3984 76.8915C25.1819 79.9982 22.0819 82.2063 18.0925 82.3988C22.0165 82.8738 26.8693 80.4732 29.4722 75.903C30.2047 74.6192 31.0157 72.4882 32.3368 72.424C33.9195 72.3341 35.5414 73.9389 37.6473 74.2341C38.4844 77.3408 38.7984 81.436 38.419 84.5556C37.6473 89.8447 33.3425 98.407 23.1414 99.4812C14.0407 100.439 8.55555 95.249 5.49861 90.7729Z" fill="white"/>
<path fill-rule="evenodd" clip-rule="evenodd" d="M72.4252 90.7729C75.4822 86.2969 76.7107 72.3915 65.7174 66.9809C62.8006 65.1579 58.4972 64.5289 55.371 65.5816C52.101 66.6856 50.0997 69.5869 50.963 73.374C51.1854 71.3842 52.3888 69.818 54.7824 69.1247C56.7183 68.5727 59.3866 69.4842 60.4331 71.8592C61.7018 74.7348 60.0799 77.8158 57.2153 78.5732C55.3187 79.0739 53.2913 78.3678 51.5255 76.8915C52.7419 79.9982 55.8419 82.2063 59.8314 82.3988C55.9073 82.8738 51.0546 80.4732 48.4516 75.903C47.7191 74.6192 46.9082 72.4882 45.5871 72.424C44.0044 72.3341 42.3824 73.9389 40.2765 74.2341C39.4394 77.3408 39.1255 81.436 39.5048 84.5556C40.2765 89.8447 44.5814 98.407 54.7824 99.4812C63.8831 100.439 69.3683 95.249 72.4252 90.7729Z" fill="white"/>
</svg>
