<svg width="16" height="10" viewBox="0 0 16 10" fill="none" xmlns="http://www.w3.org/2000/svg">
<path d="M9.13612 9.34184C9.21705 9.26149 9.28535 9.17252 9.34475 9.08011L15.5459 2.87865C16.1506 2.2734 16.1509 1.29248 15.5456 0.686941C14.9407 0.0816894 13.9595 0.0816893 13.3539 0.686941L8.01343 6.02802L2.6448 0.659964C2.04012 0.0544253 1.05863 0.0544252 0.45309 0.659964C0.150894 0.962733 -0.000346234 1.35906 -0.000346252 1.75539C-0.000346269 2.15171 0.150895 2.5489 0.453665 2.85081L6.6821 9.08011C6.74151 9.17252 6.80953 9.2612 6.89074 9.34184C7.20069 9.65179 7.60763 9.80044 8.01343 9.79356C8.41951 9.80073 8.82703 9.65179 9.13612 9.34184Z" fill="#101010"/>
</svg>
