<svg width="40" height="40" viewBox="0 0 40 40" fill="none" xmlns="http://www.w3.org/2000/svg">
<g clip-path="url(#clip0)">
<path d="M25.9988 8.00499L22.8866 8C19.3901 8 17.1305 10.3183 17.1305 13.9064V16.6296H14.0013C13.7309 16.6296 13.512 16.8488 13.512 17.1192V21.0649C13.512 21.3353 13.7312 21.5542 14.0013 21.5542H17.1305V31.5104C17.1305 31.7808 17.3495 31.9998 17.6199 31.9998H21.7026C21.973 31.9998 22.192 31.7805 22.192 31.5104V21.5542H25.8508C26.1212 21.5542 26.3401 21.3353 26.3401 21.0649L26.3416 17.1192C26.3416 16.9894 26.29 16.865 26.1983 16.7732C26.1067 16.6813 25.9819 16.6296 25.852 16.6296H22.192V14.3211C22.192 13.2115 22.4564 12.6482 23.9018 12.6482L25.9983 12.6475C26.2685 12.6475 26.4874 12.4283 26.4874 12.1581V8.49436C26.4874 8.22446 26.2687 8.00549 25.9988 8.00499Z" fill="#9FB4B5"/>
</g>
<defs>
<clipPath id="clip0">
<rect width="24" height="23.9998" fill="white" transform="translate(8 8)"/>
</clipPath>
</defs>
</svg>
