<svg width="140" height="31" viewBox="0 0 140 31" fill="none" xmlns="http://www.w3.org/2000/svg">
<path fill-rule="evenodd" clip-rule="evenodd" d="M41.9209 19.8649C42.6733 19.2519 43.7601 17.8589 44.1781 16.3266C44.206 16.1734 44.2339 16.0062 44.2478 15.839C44.2757 15.6719 44.2896 15.5047 44.2896 15.3375C44.2757 14.6271 44.1503 14.056 43.8995 13.638C43.6487 13.2201 43.3421 12.9137 42.952 12.7326C42.5618 12.5515 42.1717 12.454 41.7537 12.4679C41.2242 12.4679 40.7087 12.6072 40.221 12.8858C39.7333 13.1644 39.2874 13.5405 38.8973 14.0142C38.5071 14.4878 38.1867 15.045 37.9637 15.6579C37.7269 16.2709 37.6154 16.9256 37.6154 17.6082C37.6154 18.3047 37.7408 18.8758 37.9916 19.2798C38.2285 19.6977 38.535 20.0042 38.9112 20.1853C39.2874 20.3664 39.6776 20.4639 40.0956 20.4639C40.4161 20.4639 40.7226 20.4081 41.0291 20.3106C41.3217 20.2131 41.6283 20.0599 41.9209 19.8649ZM20.9228 12.9415C21.3687 12.2172 21.9261 11.5764 22.581 11.0052C23.2358 10.448 23.9743 10.0022 24.7964 9.68185C25.6324 9.36145 26.5242 9.19429 27.5135 9.19429C28.3634 9.19429 29.1158 9.31967 29.7429 9.55648C30.3699 9.7933 30.8994 10.0998 31.3034 10.5037C31.7214 10.8938 32.028 11.3395 32.2231 11.8132C32.4321 12.2868 32.5296 12.7883 32.5296 13.2898C32.5157 13.7913 32.4321 14.2788 32.2231 14.7246C32.028 15.1843 31.7354 15.5465 31.3452 15.853C30.969 16.1455 30.4953 16.2987 29.9379 16.2987C29.5199 16.2987 29.1437 16.2012 28.8093 15.9923C28.4749 15.7972 28.2102 15.5326 28.0151 15.1982C27.82 14.8639 27.7225 14.4878 27.7085 14.0699C27.7085 13.7077 27.7921 13.3734 27.9454 13.0669C28.0987 12.7604 28.3077 12.4958 28.5864 12.2868C28.3634 12.1754 28.0848 12.1196 27.7643 12.1196C27.2487 12.1196 26.7611 12.2729 26.2873 12.5515C25.8136 12.844 25.3816 13.2201 25.0054 13.7216C24.6292 14.2092 24.3227 14.7664 24.1137 15.3793C23.8907 16.0062 23.7792 16.6609 23.7792 17.3296C23.7792 18.0818 23.9325 18.7365 24.2112 19.2798C24.5038 19.8231 24.9079 20.2549 25.4513 20.5474C25.9808 20.84 26.6496 20.9932 27.4159 20.9932C28.2938 20.9932 29.1437 20.7843 29.9937 20.3803C30.8436 19.9763 31.6378 19.3773 32.3763 18.5833C32.8361 18.1097 33.2541 17.5524 33.6443 16.9395C33.7 16.3684 33.8254 15.8112 34.0066 15.2539C34.2713 14.4321 34.6475 13.6659 35.1491 12.9415C35.6507 12.2172 36.236 11.5764 36.9326 11.0052C37.6154 10.448 38.3957 10.0022 39.2596 9.68185C40.1095 9.36145 41.0291 9.19429 42.0184 9.19429C43.2446 9.19429 44.3314 9.45897 45.2789 9.94653C46.2264 10.4341 46.9649 11.1306 47.5083 12.0221C48.0378 12.9137 48.3164 13.9584 48.3304 15.1564C48.3304 15.7694 48.2607 16.3823 48.1074 16.9952C47.9542 17.5942 47.7452 18.1932 47.4804 18.7504C47.1878 19.3077 46.7559 20.1295 46.101 20.84C45.5994 21.4111 45.0281 21.9126 44.3872 22.3445C43.7462 22.7763 43.0495 23.0967 42.2971 23.3335C41.5447 23.5703 40.7505 23.6957 39.9005 23.6957C38.6465 23.6817 37.5597 23.431 36.6122 22.9295C35.6786 22.428 34.9401 21.7315 34.4246 20.84C34.2295 20.5196 34.0623 20.1574 33.9508 19.7952C33.3935 20.5057 32.7804 21.1325 32.1116 21.6897C31.3034 22.3445 30.4117 22.8599 29.4224 23.2221C28.4331 23.5982 27.3602 23.7793 26.1758 23.7793C24.8103 23.7793 23.6399 23.5285 22.6367 23.041C21.6474 22.5534 20.881 21.8569 20.3376 20.9514C19.8082 20.046 19.5295 18.9594 19.5155 17.7057C19.5155 16.8838 19.6409 16.0619 19.8778 15.2539C20.1286 14.4321 20.463 13.6659 20.9228 12.9415ZM50.2811 14.1674C51.3261 13.652 52.4129 13.4152 53.5834 13.4291C51.7999 10.9495 51.2146 8.01022 52.3433 5.11273C53.667 1.72768 56.9553 -0.0275339 60.4945 0.000326564C64.0058 0.0281871 67.2662 1.71374 68.5899 5.04307C68.8965 5.80924 69.0915 6.61719 69.1333 7.43908H75.2502C75.8354 7.27191 76.4346 7.20226 77.0337 7.18833C78.3017 7.1744 79.5697 7.55053 80.5311 8.4142C84.3629 5.86496 89.8388 7.31371 90.0896 12.3843C91.9706 9.22215 95.2451 7.18833 98.9653 7.18833C102.045 7.18833 104.929 8.58136 106.392 11.3813L109.193 2.22916H117.372L115.156 9.45897L116.341 7.91271H125.523C125.607 7.88485 125.676 7.84306 125.76 7.8152C128.881 6.58934 133.131 7.09082 135.109 10.044C135.834 11.1306 136.154 12.3983 136.015 13.6938C137.199 13.7773 138.356 14.251 139.15 15.1425L140 16.1037C139.234 17.7893 138.746 18.9315 137.617 20.5057C135.276 23.7653 131.988 25.7574 127.92 25.7574C125.662 25.7574 123.419 25.1444 121.733 23.6121C118.166 26.8439 113.749 26.5096 111.227 22.3166L110.279 25.423H102.114L102.574 23.9046C99.0211 26.3285 93.7959 26.4121 90.7445 23.2638C89.2675 24.6847 87.3586 25.7016 85.2825 25.6738C81.7433 25.632 80.0991 22.9434 80.4196 19.6698L78.664 25.423H65.4409C60.7313 32.625 48.4418 31.5941 46.3797 23.3335C42.6733 26.3842 36.7933 26.635 33.5886 23.027C31.4846 24.824 28.9486 25.7574 26.1898 25.7574C23.7653 25.7574 21.3409 25.0469 19.6409 23.2638C16.5059 30.9116 4.20244 31.3991 0.774757 23.3196C-1.30136 18.444 0.941961 12.8579 5.74908 10.7127C4.32784 5.41919 8.0342 0.0142492 14.0953 0.0142492C17.1747 0.0142492 20.1147 1.50479 21.3409 4.41621C22.0097 6.00426 22.0515 7.80127 21.4245 9.40325C23.8768 7.3555 27.5135 6.58933 30.4674 7.68982C32.0837 8.28882 33.4353 9.44503 34.1041 11.0609C36.0687 8.65101 38.9112 7.20226 42.0463 7.20226C46.2821 7.20226 49.8073 9.87687 50.2811 14.1674ZM57.8749 15.3097C58.7528 16.1873 59.4216 17.051 59.9093 17.8868C60.3969 18.7365 60.6338 19.6002 60.6477 20.4639C60.6477 20.9932 60.5502 21.5226 60.3412 22.0519C60.1461 22.5813 59.8535 23.0549 59.4634 23.4867C59.0872 23.9186 58.5995 24.2668 58.0282 24.5315C57.4569 24.7962 56.8021 24.9216 56.0496 24.9355C55.2275 24.9216 54.4891 24.7544 53.862 24.434C53.235 24.1136 52.7334 23.6818 52.3851 23.1663C52.0228 22.637 51.8556 22.0798 51.8417 21.4808C51.8417 21.0489 51.9392 20.6728 52.1203 20.3663C52.3015 20.0599 52.5383 19.8231 52.817 19.6559C52.9564 19.5723 53.0818 19.5166 53.2211 19.4887C53.2629 19.4609 53.5694 19.4191 53.6809 19.4191C54.6981 19.3634 56.0218 19.9345 56.3562 20.9932C58.0421 18.6669 56.9832 15.6858 53.8342 15.4629C53.6948 15.449 53.5694 15.449 53.3883 15.449C52.7056 15.449 52.0367 15.5883 51.4097 15.839C50.7827 16.1037 50.2114 16.4798 49.7098 16.9813C49.2082 17.4828 48.8041 18.0818 48.5115 18.7922C48.2189 19.4887 48.0656 20.2828 48.0656 21.1882C48.0656 22.2051 48.2746 23.1385 48.6648 23.9882C49.0549 24.8519 49.5983 25.5902 50.3229 26.231C51.0335 26.8718 51.8835 27.3593 52.8449 27.7215C53.8202 28.0698 54.8931 28.2509 56.0636 28.2509C57.3315 28.2509 58.488 28.0419 59.5609 27.624C60.6338 27.22 61.5674 26.6489 62.3616 25.9106C63.1558 25.1862 63.7828 24.3365 64.2287 23.3753C64.6746 22.4141 64.8975 21.3833 64.8975 20.2828C64.8975 19.2798 64.7024 18.3186 64.3541 17.4131C63.9918 16.4937 63.5181 15.6022 62.9189 14.7664C62.3198 13.9166 61.651 13.1087 60.9264 12.3286C60.6059 11.9803 60.2576 11.6182 59.8953 11.242C59.533 10.8659 59.1986 10.4759 58.8782 10.0719C58.5577 9.66792 58.3069 9.25001 58.0979 8.8321C57.9028 8.40026 57.7913 7.9545 57.7913 7.4948C57.7913 7.06296 57.8889 6.64505 58.0979 6.24107C58.3069 5.8371 58.6134 5.50277 59.0314 5.23809C59.4494 4.97342 59.9789 4.83413 60.6199 4.83413C61.0936 4.83413 61.5256 4.9177 61.9018 5.07094C62.278 5.22417 62.5845 5.43313 62.8214 5.68387C63.0583 5.93462 63.2115 6.22714 63.2812 6.53361C62.8353 6.72863 62.487 7.02117 62.2362 7.41122C61.9714 7.80127 61.846 8.24703 61.8321 8.74852C61.8321 9.20822 61.9436 9.6122 62.1665 9.97438C62.3755 10.3366 62.6681 10.6291 63.0304 10.8381C63.3927 11.047 63.7968 11.1585 64.2566 11.1585C64.8696 11.1585 65.3991 10.9913 65.8171 10.657C66.2491 10.3366 66.5696 9.90473 66.7925 9.38931C67.0154 8.87389 67.1269 8.31669 67.1269 7.71769C67.1269 7.0769 66.9876 6.4361 66.7228 5.76745C66.4581 5.0988 66.054 4.48586 65.5106 3.91472C64.9672 3.34358 64.2705 2.88389 63.4345 2.53563C62.5985 2.17345 61.6092 1.99235 60.4666 1.99235C59.3658 1.99235 58.4044 2.17344 57.5823 2.50777C56.7463 2.84209 56.0496 3.30179 55.4784 3.87294C54.9071 4.44408 54.4891 5.11272 54.1965 5.8371C53.9038 6.5754 53.7645 7.35549 53.7645 8.17738C53.7645 8.92961 53.8899 9.6122 54.1128 10.2391C54.3358 10.8659 54.6423 11.4649 55.0185 12.0361C55.3947 12.5933 55.8406 13.1505 56.3283 13.6798C56.816 14.2092 57.3315 14.7664 57.8749 15.3097ZM65.1483 23.4449H69.1612L71.8783 14.5714C72.0873 14.2231 72.3242 13.9027 72.6028 13.5962C72.8676 13.2898 73.1741 13.039 73.5085 12.844C73.8429 12.649 74.1913 12.5515 74.5814 12.5376C75.0412 12.5376 75.3756 12.6908 75.5707 12.9694C75.7658 13.2619 75.8633 13.6102 75.8494 14.0281C75.8494 14.4599 75.7658 14.8918 75.6264 15.3236L73.1602 23.4171H77.1731L79.8623 14.5853C80.0713 14.2231 80.3082 13.8888 80.5868 13.5823C80.8655 13.2759 81.172 13.0251 81.4925 12.8301C81.8269 12.6351 82.1753 12.5376 82.5654 12.5236C83.0392 12.5236 83.3736 12.6769 83.5686 12.9555C83.7637 13.248 83.8473 13.5963 83.8194 14.0142C83.8055 14.446 83.7219 14.8778 83.5826 15.3097L82.7047 18.1654C82.5236 18.7644 82.3982 19.3773 82.3564 20.0042C82.3146 20.645 82.3703 21.23 82.5236 21.7872C82.6769 22.3445 82.9834 22.7902 83.4293 23.1385C83.8752 23.4728 84.4883 23.6539 85.2825 23.6678C86.0628 23.6539 86.8152 23.4728 87.5258 23.1245C88.2364 22.7624 88.9052 22.2609 89.5462 21.6061C90.0339 21.1047 90.4937 20.5475 90.9395 19.9067C91.051 20.2271 91.1904 20.5196 91.3576 20.8121C91.887 21.7037 92.6116 22.4002 93.5591 22.9017C94.4926 23.4031 95.5934 23.6539 96.8474 23.6678C97.6834 23.6539 98.4916 23.5424 99.244 23.3056C99.9964 23.0688 100.693 22.7345 101.334 22.3166C101.975 21.8847 102.546 21.3833 103.062 20.8121C104.051 20.7703 104.957 20.5892 105.751 20.2688L104.79 23.4171H108.789L114.669 4.19332H110.656L106.601 17.441L106.587 17.4828C106.545 17.5246 106.503 17.5664 106.462 17.6082C105.904 18.1375 105.222 18.4997 104.427 18.7365C104.706 18.1654 104.915 17.5803 105.054 16.9813C105.208 16.3823 105.277 15.7694 105.277 15.1425C105.277 13.9445 104.999 12.8997 104.455 12.0082C103.912 11.1167 103.173 10.4202 102.226 9.93259C101.278 9.44503 100.192 9.18036 98.9653 9.18036C97.99 9.18036 97.0564 9.34752 96.2065 9.66792C95.3565 9.98831 94.5762 10.4341 93.8935 10.9913C93.1968 11.5485 92.5977 12.2032 92.11 12.9276C91.6084 13.652 91.2322 14.4321 90.9674 15.24C90.7723 15.8529 90.6469 16.452 90.5912 17.0649C90.3265 17.5385 90.0617 17.9843 89.783 18.4022C89.2675 19.1823 88.7798 19.7813 88.2921 20.2131C87.8184 20.645 87.3586 20.8678 86.9266 20.8678C86.6619 20.8678 86.4808 20.7843 86.3693 20.6032C86.2718 20.436 86.23 20.2131 86.2578 19.9345C86.2857 19.6559 86.3554 19.3634 86.4529 19.043L87.7766 14.6828C88.0971 13.638 88.1667 12.7047 88.0135 11.8689C87.8602 11.047 87.484 10.3784 86.8848 9.90474C86.2857 9.41718 85.4775 9.16643 84.4743 9.1525C83.8612 9.1525 83.3039 9.25001 82.7744 9.44504C82.2449 9.64006 81.7712 9.91867 81.3114 10.253C80.8655 10.6013 80.4475 10.9913 80.0713 11.4371C79.918 10.7545 79.5697 10.2112 79.082 9.79329C78.5804 9.37539 77.8976 9.16643 77.0337 9.1525C76.4485 9.1525 75.9051 9.26394 75.4035 9.44504C74.9019 9.64006 74.4281 9.89081 74.0101 10.1973C73.5921 10.5037 73.2159 10.8241 72.8815 11.1863L73.4249 9.40325H69.426L65.1483 23.4449ZM111.436 17.5107C113.428 25.9942 118.821 24.7405 121.803 20.4917C121.872 20.645 121.956 20.7982 122.039 20.9375C122.583 21.843 123.349 22.5395 124.339 23.027C125.328 23.5146 126.498 23.7653 127.864 23.7653C129.048 23.7653 130.121 23.5703 131.11 23.2081C132.1 22.8459 132.991 22.3305 133.8 21.6758C134.608 21.0071 135.318 20.241 135.959 19.3494C136.6 18.4718 137.144 17.5107 137.617 16.4659C137.52 16.3544 137.394 16.243 137.213 16.1316C137.032 16.0201 136.837 15.9226 136.628 15.839C136.419 15.7554 136.238 15.7136 136.057 15.6997C135.499 16.8281 134.845 17.8032 134.106 18.5833C133.368 19.3773 132.573 19.9763 131.737 20.3803C130.887 20.7843 130.023 20.9932 129.146 20.9932C128.17 20.9932 127.39 20.7564 126.791 20.3106C126.192 19.8649 125.788 19.2241 125.607 18.3883C127.125 18.4161 128.421 18.2768 129.494 17.9704C130.567 17.6639 131.445 17.246 132.114 16.7166C132.782 16.1873 133.27 15.6022 133.577 14.9753C133.883 14.3485 134.036 13.7216 134.036 13.1226C134.036 12.4122 133.827 11.7575 133.437 11.1585C133.033 10.5595 132.462 10.0998 131.737 9.73757C130.999 9.37538 130.121 9.20822 129.09 9.19429C128.142 9.19429 127.265 9.36145 126.456 9.68185C125.648 10.0022 124.924 10.4341 124.283 10.9913C123.642 11.5485 123.085 12.1893 122.639 12.9137C122.193 13.638 121.844 14.4042 121.594 15.2122C121.357 16.0201 121.231 16.8559 121.231 17.6917C121.231 17.8032 121.231 17.9007 121.231 18.0121C121.134 18.1654 121.036 18.3186 120.925 18.4718C120.409 19.238 119.894 19.837 119.378 20.2549C118.863 20.6728 118.361 20.8957 117.873 20.8957C117.469 20.8957 117.135 20.7564 116.884 20.5196C116.619 20.2688 116.41 19.9624 116.257 19.5863C116.104 19.2101 115.992 18.8201 115.923 18.4161L115.783 17.2042L121.984 9.93259H117.274L111.436 17.5107ZM8.87022 20.0042C12.6741 16.8699 15.1543 21.2022 12.8971 23.1803C12.8971 23.1803 12.8971 23.1803 12.8831 23.1803C12.7438 23.2917 12.5905 23.3892 12.4372 23.4867C11.8381 23.8211 11.1414 24.0021 10.389 24.0021C9.5669 24.0021 8.84235 23.7932 8.21534 23.4031C7.58832 23.0131 7.08671 22.4837 6.73837 21.8151C6.37609 21.1464 6.19496 20.4081 6.19496 19.5723C6.19496 18.9315 6.30643 18.3186 6.5433 17.7196C6.76624 17.1345 7.10064 16.6052 7.53259 16.1316C7.96453 15.6579 8.48008 15.2818 9.07923 15.0032C9.67837 14.7246 10.3472 14.5574 11.0857 14.5156V14.5296C12.5348 15.5186 14.9453 15.7972 16.269 14.0002C15.5444 13.847 14.8199 13.5545 14.165 13.1923C14.1232 13.1644 14.0814 13.1366 14.0814 13.1366C13.7749 12.9555 13.4683 12.7604 13.2036 12.5376C13.1479 12.5097 13.12 12.4679 13.1061 12.4679C12.8413 12.2729 12.6044 12.05 12.4094 11.8271C12.2143 11.6182 12.061 11.4092 11.9217 11.2003C11.4061 10.3923 11.1553 9.5704 11.1693 8.72066C11.1693 8.07987 11.2947 7.48087 11.5455 6.92366C11.7963 6.36645 12.1586 5.92068 12.6323 5.57243C13.1061 5.22417 13.6773 5.04307 14.3462 5.04307C14.8199 5.04307 15.224 5.14059 15.5584 5.30775C15.8928 5.48884 16.1436 5.71173 16.3247 5.97641C16.4919 6.25501 16.5895 6.53361 16.5895 6.85401C16.5895 7.2162 16.4641 7.5366 16.2411 7.77341C16.1436 7.87092 16.0321 7.9545 15.9067 8.01022C15.2797 8.31669 14.4019 8.17738 13.956 7.82912C12.6184 10.2669 16.5755 12.5236 18.7631 9.96046C18.8746 9.83509 18.9721 9.69578 19.0557 9.5704C19.0836 9.52861 19.1254 9.47289 19.1533 9.4311C19.3205 9.1525 19.4598 8.85996 19.5852 8.53957C19.7664 8.01022 19.8639 7.4948 19.8639 6.95152C19.8639 6.33859 19.7385 5.72565 19.4877 5.14058C19.2369 4.54158 18.8746 4.01224 18.373 3.53861C17.8853 3.06498 17.2722 2.67494 16.5616 2.39633C15.8371 2.1038 15.015 1.96449 14.0814 1.95056C13.0225 1.95056 12.075 2.14559 11.2529 2.49384C10.4308 2.8421 9.73411 3.32966 9.16283 3.94259C8.59155 4.54159 8.1596 5.2381 7.867 6.0182C7.57439 6.78436 7.42112 7.59231 7.42112 8.42812C7.42112 9.04105 7.50472 9.65399 7.67192 10.2391C7.83913 10.8241 8.08994 11.3813 8.43828 11.9246C7.58832 12.0639 6.78017 12.3286 6.01382 12.7465C5.24747 13.1644 4.56472 13.6938 3.95163 14.3485C3.35249 15.0032 2.86481 15.7694 2.51647 16.6191C2.16812 17.4828 1.98699 18.4301 1.98699 19.4609C1.98699 20.5475 2.19599 21.5504 2.58613 22.4838C2.97628 23.4171 3.54756 24.225 4.25817 24.9215C4.98273 25.6181 5.84661 26.1613 6.82197 26.5514C7.81126 26.9414 8.89809 27.1504 10.0825 27.1504C11.225 27.1504 12.2979 26.9554 13.3011 26.5932C14.2904 26.231 15.1822 25.7016 15.9346 25.033C16.687 24.3643 17.2862 23.5564 17.7042 22.637C17.8853 22.233 18.0107 21.8151 18.1082 21.4111C18.5681 19.4191 18.2476 17.3296 17.4394 15.5883C16.7288 16.2012 16.3387 16.9395 16.4919 18.0539C16.4362 18.04 16.3665 18.0261 16.2969 18.0121C14.7363 15.7276 9.85951 15.4211 8.87022 20.0042ZM127.432 13.1366C126.944 13.4987 126.526 13.9724 126.206 14.5574C125.871 15.1564 125.662 15.8112 125.551 16.5495C126.679 16.5216 127.585 16.3684 128.31 16.0898C129.02 15.7972 129.55 15.4629 129.898 15.045C130.246 14.6271 130.414 14.2231 130.414 13.8052C130.414 13.4709 130.316 13.1923 130.107 12.9694C129.884 12.7326 129.536 12.6072 129.048 12.5933C128.449 12.6072 127.92 12.7883 127.432 13.1366ZM101.083 16.3266C101.111 16.1734 101.139 16.0062 101.153 15.839C101.167 15.6719 101.181 15.5047 101.181 15.3375C101.181 14.6271 101.041 14.056 100.805 13.638C100.554 13.2201 100.233 12.9137 99.8571 12.7326C99.467 12.5515 99.0768 12.454 98.6588 12.4679C98.1293 12.4679 97.6277 12.6072 97.14 12.8858C96.6384 13.1644 96.2065 13.5405 95.8024 14.0142C95.4122 14.4878 95.1057 15.045 94.8688 15.6579C94.632 16.2709 94.5205 16.9256 94.5066 17.6082C94.5066 18.3047 94.6459 18.8758 94.8828 19.2798C95.1196 19.6977 95.4262 20.0042 95.8024 20.1853C96.1786 20.3664 96.5688 20.4639 96.9868 20.4639C97.2933 20.4639 97.6138 20.4081 97.9203 20.3106C98.2269 20.2131 98.5334 20.0738 98.826 19.8788C98.6867 19.6977 98.5891 19.4888 98.5055 19.2659C98.4359 19.043 98.3941 18.7922 98.3941 18.5276C98.3941 18.1096 98.5055 17.7335 98.7006 17.3992C98.8957 17.051 99.1604 16.7863 99.4948 16.5913C99.8292 16.3823 100.205 16.2848 100.623 16.2848C100.707 16.2848 100.791 16.2848 100.86 16.2987C100.944 16.2987 101.014 16.3127 101.083 16.3266Z" fill="#000003"/>
<path fill-rule="evenodd" clip-rule="evenodd" d="M128.31 16.0758C129.021 15.7832 129.55 15.4489 129.898 15.031C130.247 14.6131 130.414 14.2091 130.414 13.7912C130.414 13.4569 130.316 13.1783 130.107 12.9554C129.884 12.7186 129.536 12.5932 129.048 12.5793C128.463 12.5932 127.934 12.7743 127.446 13.1226C126.958 13.4847 126.54 13.9584 126.22 14.5434C125.886 15.1424 125.677 15.7972 125.565 16.5355C126.666 16.5215 127.585 16.3544 128.31 16.0758ZM97.9346 20.2966C98.2411 20.1991 98.5477 20.0598 98.8403 19.8648C98.7009 19.6837 98.6034 19.4748 98.5198 19.2519C98.4501 19.029 98.4083 18.7782 98.4083 18.5136C98.4083 18.0957 98.5198 17.7195 98.7149 17.3852C98.9099 17.037 99.1747 16.7723 99.5091 16.5773C99.8435 16.3683 100.22 16.2708 100.638 16.2708C100.721 16.2708 100.805 16.2708 100.875 16.2847C100.958 16.2987 101.028 16.2987 101.098 16.3265C101.125 16.1733 101.153 16.0061 101.167 15.839C101.181 15.6718 101.195 15.5046 101.195 15.3375C101.195 14.627 101.056 14.0559 100.819 13.638C100.568 13.2201 100.248 12.9136 99.8714 12.7325C99.4812 12.5514 99.0911 12.4539 98.6731 12.4678C98.1575 12.4678 97.642 12.6071 97.1543 12.8858C96.6527 13.1644 96.2207 13.5405 95.8167 14.0141C95.4265 14.4877 95.12 15.0449 94.8831 15.6579C94.6462 16.2708 94.5348 16.9255 94.5208 17.6081C94.5208 18.3046 94.6602 18.8758 94.897 19.2797C95.1339 19.6976 95.4404 20.0041 95.8167 20.1852C96.1929 20.3663 96.583 20.4638 97.001 20.4638C97.3076 20.4499 97.628 20.3942 97.9346 20.2966ZM41.0155 20.2966C41.3221 20.1991 41.6286 20.0598 41.9212 19.8648C42.6736 19.2519 43.7605 17.8589 44.1785 16.3265C44.2063 16.1733 44.2342 16.0061 44.2481 15.839C44.276 15.6718 44.2899 15.5046 44.2899 15.3375C44.276 14.627 44.1506 14.0559 43.8998 13.638C43.649 13.2201 43.3424 12.9136 42.9523 12.7325C42.5622 12.5514 42.172 12.4539 41.754 12.4678C41.2245 12.4678 40.709 12.6071 40.2213 12.8858C39.7336 13.1644 39.2877 13.5405 38.8976 14.0141C38.5075 14.4877 38.187 15.0449 37.964 15.6579C37.7411 16.2708 37.6157 16.9255 37.6157 17.6081C37.6157 18.3046 37.7411 18.8758 37.9919 19.2797C38.2288 19.6976 38.5353 20.0041 38.9115 20.1852C39.2877 20.3663 39.6779 20.4638 40.0959 20.4638C40.4024 20.4499 40.709 20.3942 41.0155 20.2966ZM12.967 23.1384C12.9531 23.1523 12.9252 23.1663 12.9113 23.1941C12.9113 23.1941 12.9113 23.1941 12.8974 23.1941C12.9113 23.1802 12.9392 23.1663 12.967 23.1384ZM83.4157 23.1663C82.9698 22.818 82.6633 22.3722 82.51 21.815C82.3567 21.2718 82.2871 20.6728 82.3428 20.032C82.3985 19.4051 82.51 18.7922 82.6911 18.1932L83.569 15.3375C83.7222 14.8917 83.7919 14.4599 83.8058 14.042C83.8198 13.6101 83.7362 13.2619 83.555 12.9833C83.36 12.7047 83.0255 12.5514 82.5518 12.5514C82.1617 12.5514 81.7994 12.6489 81.4789 12.8579C81.1445 13.0529 80.838 13.3037 80.5732 13.6101C80.2945 13.9166 80.0577 14.2509 79.8487 14.6131L77.1595 23.4449H73.1326L75.5989 15.3514C75.7522 14.9056 75.8218 14.4738 75.8218 14.0559C75.8358 13.624 75.7522 13.2758 75.5432 12.9972C75.3481 12.7186 75.0137 12.5654 74.5539 12.5654C74.1777 12.5654 73.8154 12.6629 73.481 12.8718C73.1466 13.0668 72.854 13.3176 72.5753 13.6241C72.3106 13.9305 72.0598 14.2509 71.8507 14.5992L69.1337 23.4727H65.1208L69.4124 9.47283H73.4113L72.8679 11.2559C73.2023 10.8937 73.5785 10.5733 73.9965 10.2669C74.4145 9.96039 74.8883 9.70966 75.3899 9.51463C75.8915 9.33354 76.4349 9.22209 77.0201 9.22209C77.884 9.23602 78.5668 9.44498 79.0684 9.86289C79.57 10.2808 79.9044 10.8241 80.0577 11.5066C80.4339 11.0609 80.8519 10.6708 81.2978 10.3226C81.7576 9.98825 82.2313 9.70966 82.7608 9.51463C83.2903 9.31961 83.8476 9.22209 84.4607 9.22209C85.4639 9.23602 86.2721 9.48677 86.8712 9.97432C87.4704 10.448 87.8466 11.1166 87.9999 11.9385C88.1531 12.7743 88.0835 13.7076 87.763 14.7524L86.4393 19.1126C86.3418 19.433 86.2721 19.7255 86.2442 20.0041C86.2164 20.2827 86.2582 20.5056 86.3557 20.6728C86.4532 20.8399 86.6483 20.9374 86.913 20.9374C87.345 20.9374 87.7909 20.7145 88.2785 20.2827C88.7662 19.8509 89.2539 19.2379 89.7694 18.4718C90.0342 18.0678 90.2989 17.622 90.5776 17.1345C90.6333 16.5215 90.7587 15.9086 90.9538 15.3096C91.2185 14.4877 91.5948 13.7216 92.0964 12.9972C92.584 12.2728 93.1832 11.632 93.8799 11.0609C94.5626 10.5037 95.3429 10.0579 96.1929 9.73751C97.0428 9.41712 97.9764 9.24996 98.9517 9.24996C100.178 9.24996 101.265 9.51463 102.212 10.0022C103.16 10.4897 103.898 11.1863 104.442 12.0778C104.985 12.9693 105.264 14.0141 105.264 15.2121C105.264 15.825 105.194 16.438 105.041 17.0509C104.887 17.6638 104.678 18.2489 104.414 18.8061C105.208 18.5832 105.891 18.2071 106.448 17.6778C106.49 17.636 106.532 17.5942 106.573 17.5524L106.587 17.5106L110.642 4.26292H114.655L108.775 23.4867H104.762L105.723 20.3384C104.929 20.6588 104.038 20.8399 103.034 20.8817C102.533 21.4529 101.961 21.9543 101.307 22.3862C100.666 22.818 99.9689 23.1384 99.2165 23.3752C98.4641 23.612 97.6698 23.7374 96.8199 23.7374C95.5658 23.7235 94.4651 23.4727 93.5315 22.9712C92.584 22.4698 91.8595 21.7732 91.33 20.8817C91.1628 20.6031 91.0235 20.2966 90.912 19.9762C90.4661 20.617 90.0063 21.1742 89.5186 21.6757C88.8777 22.3305 88.2089 22.832 87.4983 23.1941C86.7876 23.5563 86.0492 23.7374 85.2549 23.7374C84.4747 23.6817 83.8616 23.5006 83.4157 23.1663ZM22.6509 23.027C21.6617 22.5394 20.8953 21.8429 20.3519 20.9374C19.8224 20.032 19.5437 18.9454 19.5298 17.6917C19.5298 16.8698 19.6552 16.0479 19.8921 15.24C20.1289 14.4181 20.4773 13.6519 20.9371 12.9275C21.383 12.2032 21.9403 11.5624 22.5952 10.9912C23.2501 10.434 23.9886 9.98825 24.8107 9.66786C25.6327 9.34746 26.5384 9.1803 27.5417 9.1803C28.3916 9.1803 29.144 9.30568 29.771 9.54249C30.3981 9.7793 30.9275 10.0858 31.3316 10.4897C31.7496 10.8798 32.0562 11.3256 32.2512 11.7992C32.4602 12.2728 32.5578 12.7743 32.5578 13.2758C32.5578 13.7773 32.4602 14.2648 32.2512 14.7106C32.0562 15.1703 31.7636 15.5325 31.3734 15.839C30.9972 16.1315 30.5235 16.2847 29.9661 16.2847C29.5481 16.2847 29.1719 16.1872 28.8375 15.9783C28.5031 15.7832 28.2383 15.5186 28.0433 15.1842C27.8482 14.8499 27.7507 14.4738 27.7367 14.0559C27.7367 13.6937 27.8203 13.3594 27.9736 13.0529C28.1269 12.7464 28.3359 12.4818 28.6146 12.2728C28.3916 12.1614 28.1129 12.1057 27.7925 12.1057C27.2769 12.1057 26.7892 12.2589 26.3155 12.5375C25.8418 12.83 25.4098 13.2061 25.0336 13.7076C24.6574 14.1952 24.3508 14.7524 24.1418 15.3653C23.9189 15.9922 23.8074 16.633 23.8074 17.3156C23.8074 18.0678 23.9607 18.7225 24.2394 19.2658C24.532 19.8091 24.9361 20.2409 25.4795 20.5335C26.009 20.826 26.6778 20.9792 27.4441 20.9792C28.3219 20.9792 29.1719 20.7703 30.0219 20.3663C30.8718 19.9623 31.666 19.3633 32.4045 18.5693C32.8643 18.0957 33.2823 17.5385 33.6725 16.9255C33.7282 16.3544 33.8536 15.7972 34.0348 15.24C34.2995 14.4181 34.6757 13.6519 35.1773 12.9275C35.6789 12.2032 36.2641 11.5624 36.9608 10.9912C37.6436 10.434 38.4239 9.98825 39.2877 9.66786C40.1377 9.34746 41.0573 9.1803 42.0466 9.1803C43.2728 9.1803 44.3596 9.44498 45.3071 9.93253C46.2546 10.4201 46.9931 11.1166 47.5365 12.0081C48.066 12.8997 48.3446 13.9444 48.3586 15.1424C48.3586 15.7554 48.2889 16.3683 48.1356 16.9812C47.9824 17.5942 47.7734 18.1792 47.5086 18.7365C47.216 19.2937 46.7841 20.1155 46.1292 20.826C45.6276 21.3971 45.0563 21.8986 44.4153 22.3305C43.7744 22.7623 43.0777 23.0827 42.3253 23.3195C41.5729 23.5563 40.7786 23.6817 39.9287 23.6817C38.6747 23.6678 37.5878 23.417 36.6403 22.9155C35.7068 22.414 34.9683 21.7175 34.4528 20.826C34.2577 20.5056 34.0905 20.1434 33.979 19.7812C33.4217 20.4917 32.8086 21.1185 32.1398 21.6757C31.3316 22.3305 30.4399 22.8459 29.4506 23.2081C28.4613 23.5702 27.3884 23.7653 26.204 23.7653C24.8107 23.7653 23.6402 23.5145 22.6509 23.027ZM111.436 17.5106L117.288 9.90468H121.998L115.798 17.1763L115.937 18.3882C116.007 18.7922 116.118 19.1822 116.271 19.5583C116.425 19.9345 116.634 20.2549 116.898 20.4917C117.163 20.7424 117.497 20.8678 117.888 20.8678C118.375 20.8678 118.877 20.6449 119.392 20.227C119.908 19.8091 120.424 19.2101 120.939 18.4439C121.037 18.2907 121.134 18.1375 121.246 17.9842C121.246 17.8728 121.246 17.7753 121.246 17.6638C121.246 16.828 121.371 16.0061 121.608 15.1842C121.845 14.3624 122.193 13.6101 122.653 12.8858C123.099 12.1614 123.656 11.5206 124.297 10.9634C124.938 10.4062 125.663 9.97433 126.471 9.65393C127.279 9.33354 128.157 9.18031 129.104 9.16638C130.121 9.18031 130.999 9.3614 131.752 9.70966C132.49 10.0718 133.047 10.5455 133.452 11.1305C133.842 11.7295 134.051 12.3703 134.051 13.0947C134.051 13.6937 133.897 14.3206 133.591 14.9474C133.284 15.5743 132.797 16.1594 132.128 16.6887C131.459 17.2181 130.581 17.636 129.508 17.9424C128.435 18.2489 127.14 18.3882 125.621 18.3603C125.802 19.1822 126.192 19.823 126.805 20.2827C127.404 20.7424 128.199 20.9653 129.16 20.9653C130.052 20.9653 130.902 20.7563 131.752 20.3524C132.588 19.9484 133.382 19.3494 134.12 18.5554C134.859 17.7753 135.514 16.8141 136.071 15.6718C136.252 15.6857 136.447 15.7275 136.642 15.8111C136.851 15.8947 137.046 15.9922 137.228 16.1036C137.409 16.2151 137.534 16.3265 137.632 16.438C137.158 17.4827 136.614 18.4439 135.973 19.3215C135.346 20.2131 134.622 20.9792 133.814 21.6479C133.006 22.3026 132.114 22.818 131.125 23.1802C130.135 23.5424 129.062 23.7374 127.878 23.7374C126.513 23.7374 125.342 23.4867 124.353 22.9991C123.364 22.5115 122.597 21.815 122.054 20.9096C121.97 20.7563 121.887 20.6031 121.817 20.4638C118.835 24.7404 113.443 25.9941 111.436 17.5106ZM18.1086 21.4668C18.025 21.8708 17.8856 22.2747 17.7045 22.6926C17.2725 23.612 16.6873 24.42 15.9349 25.0886C15.1825 25.7573 14.3047 26.2866 13.3014 26.6488C12.3122 27.011 11.2393 27.1921 10.0828 27.206C8.89841 27.206 7.81158 26.9971 6.82229 26.607C5.84693 26.217 4.98304 25.6737 4.25849 24.9772C3.53394 24.2807 2.9766 23.4588 2.58645 22.5394C2.19631 21.6061 1.9873 20.6031 1.9873 19.5165C1.9873 18.4857 2.16844 17.5385 2.51678 16.6748C2.86513 15.8111 3.33887 15.0589 3.95195 14.4041C4.56503 13.7494 5.24778 13.2061 6.01414 12.8022C6.78049 12.3843 7.58864 12.1196 8.4386 11.9803C8.09025 11.4509 7.83945 10.8798 7.67224 10.2947C7.50504 9.70965 7.42144 9.11065 7.42144 8.48379C7.42144 7.64797 7.57471 6.84002 7.86731 6.07386C8.15992 5.3077 8.59187 4.61118 9.16315 3.99825C9.73443 3.38531 10.4311 2.89776 11.2532 2.54951C12.0753 2.18732 13.0228 2.00622 14.0817 2.00622C15.0153 2.00622 15.8513 2.15945 16.5619 2.45199C17.2865 2.73059 17.8856 3.12065 18.3733 3.59428C18.861 4.06791 19.2372 4.61118 19.488 5.19625C19.7388 5.78132 19.8642 6.39425 19.8642 7.00718C19.8642 7.53653 19.7667 8.06588 19.5855 8.59523C19.4741 8.9017 19.3347 9.20816 19.1536 9.48677C19.1257 9.52856 19.0839 9.58428 19.0561 9.62607C18.9725 9.76537 18.8749 9.89074 18.7634 10.0161C16.5759 12.5793 12.6187 10.3226 13.9563 7.88479C14.4022 8.23304 15.28 8.38628 15.907 8.06589C16.0324 8.01017 16.1439 7.92658 16.2415 7.82906C16.4644 7.57832 16.5898 7.27186 16.5898 6.90967C16.5898 6.60321 16.4923 6.31068 16.3251 6.03207C16.1439 5.75347 15.8931 5.53058 15.5587 5.36341C15.2243 5.19625 14.8063 5.09874 14.3465 5.09874C13.6777 5.11267 13.1064 5.29377 12.6326 5.62809C12.1589 5.97635 11.7966 6.42211 11.5458 6.97932C11.295 7.53653 11.1696 8.13553 11.1696 8.77632C11.1696 9.62607 11.4065 10.448 11.922 11.2559C12.0613 11.4788 12.2286 11.6877 12.4097 11.8828C12.6048 12.1057 12.8416 12.3285 13.1064 12.5236C13.1064 12.5375 13.1482 12.5653 13.2039 12.6071C13.4687 12.83 13.7613 13.025 14.0817 13.2061C14.0817 13.2061 14.1235 13.234 14.1653 13.2619C14.8202 13.638 15.5448 13.9166 16.2693 14.0698C14.9456 15.8668 12.5351 15.5882 11.086 14.5992V14.5852C10.3475 14.627 9.67869 14.7942 9.07954 15.0728C8.4804 15.3653 7.96485 15.7414 7.53291 16.2011C7.08703 16.633 6.76655 17.1623 6.52968 17.7474C6.30674 18.3464 6.18134 18.9454 6.18134 19.6001C6.18134 20.4359 6.36248 21.1882 6.72475 21.8429C7.0731 22.5116 7.57471 23.0409 8.20172 23.431C8.82874 23.821 9.55329 24.016 10.3754 24.03C11.1278 24.03 11.8105 23.8489 12.4236 23.5145C12.5769 23.4309 12.7302 23.3195 12.8695 23.2081C12.8695 23.2081 12.8695 23.2081 12.8834 23.2081C15.1407 21.23 12.6605 16.8977 8.85661 20.032C9.8459 15.435 14.7227 15.7414 16.2833 18.0957C16.3529 18.1096 16.4226 18.1235 16.4783 18.1375C16.3251 17.023 16.7152 16.2847 17.4258 15.6718C18.2479 17.3852 18.5544 19.4748 18.1086 21.4668ZM52.8731 27.7075C53.8484 28.0558 54.9213 28.2369 56.0918 28.2369C57.3597 28.2369 58.5162 28.0279 59.5891 27.61C60.662 27.206 61.5956 26.6349 62.3898 25.8966C63.184 25.1722 63.811 24.3225 64.2569 23.3613C64.7028 22.4001 64.9257 21.3693 64.9257 20.2688C64.9257 19.2658 64.7306 18.3046 64.3823 17.3991C64.02 16.4798 63.5463 15.5882 62.9471 14.7524C62.348 13.9027 61.6792 13.0947 60.9546 12.3146C60.6341 11.9664 60.2858 11.6042 59.9235 11.228C59.5612 10.8519 59.2268 10.4619 58.9064 10.0579C58.5859 9.65394 58.3351 9.23603 58.1261 8.81812C57.931 8.38628 57.8195 7.94051 57.8195 7.48081C57.8195 7.04897 57.9171 6.63107 58.1261 6.22709C58.3351 5.82312 58.6416 5.48879 59.0596 5.22411C59.4776 4.95944 60.0071 4.82014 60.6481 4.82014C61.1218 4.82014 61.5538 4.90371 61.93 5.05695C62.3062 5.21018 62.6127 5.41914 62.8496 5.66988C63.0865 5.92063 63.2397 6.21316 63.3094 6.51963C62.8635 6.71465 62.5152 7.00718 62.2504 7.39723C61.9857 7.78728 61.8603 8.23304 61.8464 8.73453C61.8464 9.19423 61.9578 9.59821 62.1808 9.9604C62.3898 10.3226 62.6824 10.6151 63.0447 10.8241C63.4069 11.033 63.811 11.1445 64.2708 11.1445C64.8839 11.1445 65.4134 10.9773 65.8314 10.643C66.2633 10.3226 66.5838 9.89074 66.8068 9.37532C67.0297 8.8599 67.1412 8.3027 67.1412 7.7037C67.1412 7.06291 67.0018 6.42211 66.7371 5.75346C66.4723 5.08481 66.0683 4.47187 65.5249 3.90073C64.9814 3.32959 64.2848 2.8699 63.4487 2.52164C62.6127 2.15946 61.6234 1.99229 60.4809 1.97836C59.3801 1.97836 58.4187 2.15946 57.5966 2.49379C56.7606 2.82811 56.0639 3.2878 55.4926 3.85894C54.9213 4.43008 54.5033 5.09874 54.2107 5.82312C53.9181 6.56142 53.7788 7.34151 53.7788 8.1634C53.7788 8.91563 53.9042 9.59821 54.1271 10.2251C54.3501 10.8519 54.6566 11.4509 55.0328 12.0221C55.409 12.5793 55.8549 13.1365 56.3426 13.6658C56.8302 14.1952 57.3458 14.7524 57.8892 15.2957C58.767 16.1733 59.4358 17.037 59.9235 17.8728C60.4112 18.7225 60.6481 19.5862 60.662 20.4499C60.662 20.9792 60.5645 21.5086 60.3555 22.0379C60.1604 22.5673 59.8678 23.0409 59.4776 23.4727C59.1014 23.9046 58.6138 24.2528 58.0425 24.5175C57.4712 24.7822 56.8163 24.9076 56.0639 24.9215C55.2279 24.9076 54.5033 24.7404 53.8763 24.42C53.2493 24.0996 52.7477 23.6678 52.3993 23.1523C52.0371 22.623 51.8559 22.0658 51.8559 21.4668C51.8559 21.0349 51.9535 20.6588 52.1346 20.3524C52.3157 20.0459 52.5526 19.8091 52.8313 19.6419C52.9706 19.5583 53.096 19.5026 53.2354 19.4748C53.2772 19.4469 53.5837 19.4051 53.6952 19.4051C54.7123 19.3494 56.036 19.9205 56.3704 20.9792C58.0564 18.6529 56.9974 15.6718 53.8484 15.4489C53.7091 15.435 53.5837 15.435 53.4026 15.435C52.7198 15.435 52.051 15.5743 51.424 15.825C50.797 16.0897 50.2257 16.4658 49.7241 16.9673C49.2225 17.4688 48.8184 18.0678 48.5258 18.7782C48.2332 19.4748 48.0799 20.2688 48.0799 21.1742C48.0799 22.1912 48.2889 23.1245 48.679 23.9742C49.0692 24.8379 49.6126 25.5762 50.3372 26.217C51.0617 26.8578 51.8977 27.3454 52.8731 27.7075Z" fill="white"/>
</svg>
