<svg width="16" height="18" viewBox="0 0 16 18" fill="none" xmlns="http://www.w3.org/2000/svg">
<path d="M15.4399 17.2481L14.3446 5.05022C14.3147 4.7171 14.0355 4.46195 13.7011 4.46195H11.4424V3.44322C11.4424 1.54463 9.89782 0 7.99932 0C6.1009 0 4.55653 1.54463 4.55653 3.44322V4.46195H2.29622C1.96182 4.46195 1.68263 4.7171 1.65274 5.05022L0.55312 17.2961C0.536926 17.4769 0.597398 17.6559 0.719807 17.7898C0.842216 17.9237 1.01528 17.9999 1.19661 17.9999H14.8008H14.8025C15.1594 17.9999 15.4486 17.7106 15.4486 17.3538C15.4485 17.3179 15.4456 17.2825 15.4399 17.2481ZM5.84867 3.44322C5.84867 2.25712 6.81347 1.29214 7.9994 1.29214C9.18542 1.29214 10.1503 2.25712 10.1503 3.44322V4.46195L5.84867 4.46195V3.44322ZM1.90333 16.7079L2.88691 5.75409H4.55653V6.90944C4.55653 7.26624 4.84571 7.55551 5.2026 7.55551C5.55949 7.55551 5.84867 7.26624 5.84867 6.90944V5.75409L10.1503 5.75409V6.90944C10.1503 7.26624 10.4395 7.55551 10.7964 7.55551C11.1533 7.55551 11.4425 7.26624 11.4425 6.90944V5.75409H13.1105L14.0941 16.7079H1.90333Z" fill="#101010"/>
</svg>
