<svg width="14" height="14" viewBox="0 0 14 14" fill="none" xmlns="http://www.w3.org/2000/svg">
<g clip-path="url(#clip0)">
<path d="M13.9636 5.36987C13.872 5.08638 13.6205 4.88504 13.3231 4.85823L9.28228 4.49132L7.68445 0.751431C7.56663 0.477345 7.29831 0.299927 7.00019 0.299927C6.70208 0.299927 6.43376 0.477345 6.31594 0.752072L4.71811 4.49132L0.676682 4.85823C0.379738 4.88568 0.128938 5.08638 0.0367576 5.36987C-0.0554231 5.65335 0.0297079 5.96429 0.254338 6.16029L3.30869 8.83898L2.40803 12.8064C2.34213 13.0981 2.45535 13.3996 2.69739 13.5746C2.82749 13.6686 2.9797 13.7164 3.1332 13.7164C3.26554 13.7164 3.39681 13.6808 3.51463 13.6103L7.00019 11.5271L10.4845 13.6103C10.7394 13.7637 11.0608 13.7497 11.3024 13.5746C11.5445 13.3991 11.6576 13.0975 11.5917 12.8064L10.6911 8.83898L13.7454 6.16083C13.97 5.96429 14.0558 5.65388 13.9636 5.36987Z" fill="#F0EAE8"/>
<path d="M7.00007 0.300781C6.70195 0.300781 6.43364 0.4782 6.31582 0.752926L4.71798 4.49217L0.67656 4.85908C0.379616 4.88653 0.128816 5.08724 0.0366355 5.37072C-0.0555452 5.65421 0.0295858 5.96514 0.254216 6.16115L3.30857 8.83983L2.40791 12.8072C2.34201 13.0989 2.45523 13.4005 2.69727 13.5754C2.82737 13.6694 2.97958 13.7173 3.13307 13.7173C3.26542 13.7173 3.39669 13.6816 3.51451 13.6111L7.00007 11.5279C7.00007 7 7 7 7.00007 0.300781Z" fill="#FFC107"/>
</g>
<defs>
<clipPath id="clip0">
<rect width="14" height="14" fill="white"/>
</clipPath>
</defs>
</svg>
