<svg width="137" height="28" viewBox="0 0 137 28" fill="none" xmlns="http://www.w3.org/2000/svg">
<path fill-rule="evenodd" clip-rule="evenodd" d="M127.31 15.0759C128.021 14.7834 128.55 14.4491 128.898 14.0312C129.247 13.6133 129.414 13.2093 129.414 12.7914C129.414 12.457 129.316 12.1784 129.107 11.9555C128.884 11.7187 128.536 11.5934 128.048 11.5794C127.463 11.5934 126.934 11.7745 126.446 12.1227C125.958 12.4849 125.54 12.9585 125.22 13.5436C124.886 14.1426 124.677 14.7973 124.565 15.5356C125.666 15.5217 126.585 15.3545 127.31 15.0759ZM96.9346 19.2968C97.2411 19.1993 97.5477 19.06 97.8403 18.865C97.7009 18.6839 97.6034 18.4749 97.5198 18.252C97.4501 18.0291 97.4083 17.7784 97.4083 17.5137C97.4083 17.0958 97.5198 16.7197 97.7149 16.3854C97.9099 16.0371 98.1747 15.7724 98.5091 15.5774C98.8435 15.3685 99.2197 15.271 99.6377 15.271C99.7213 15.271 99.8049 15.2709 99.8746 15.2849C99.9582 15.2988 100.028 15.2988 100.098 15.3267C100.125 15.1734 100.153 15.0063 100.167 14.8391C100.181 14.6719 100.195 14.5048 100.195 14.3376C100.195 13.6272 100.056 13.056 99.8188 12.6381C99.568 12.2202 99.2476 11.9138 98.8714 11.7327C98.4812 11.5516 98.0911 11.4541 97.6731 11.468C97.1575 11.468 96.642 11.6073 96.1543 11.8859C95.6527 12.1645 95.2207 12.5406 94.8167 13.0143C94.4265 13.4879 94.12 14.0451 93.8831 14.658C93.6462 15.271 93.5348 15.9257 93.5208 16.6083C93.5208 17.3048 93.6602 17.8759 93.897 18.2799C94.1339 18.6978 94.4404 19.0043 94.8167 19.1854C95.1929 19.3664 95.583 19.464 96.001 19.464C96.3076 19.45 96.628 19.3943 96.9346 19.2968ZM40.0155 19.2968C40.3221 19.1993 40.6286 19.06 40.9212 18.865C41.6736 18.252 42.7605 16.859 43.1785 15.3267C43.2063 15.1734 43.2342 15.0063 43.2481 14.8391C43.276 14.6719 43.2899 14.5048 43.2899 14.3376C43.276 13.6272 43.1506 13.056 42.8998 12.6381C42.649 12.2202 42.3424 11.9138 41.9523 11.7327C41.5622 11.5516 41.172 11.4541 40.754 11.468C40.2245 11.468 39.709 11.6073 39.2213 11.8859C38.7336 12.1645 38.2877 12.5406 37.8976 13.0143C37.5075 13.4879 37.187 14.0451 36.964 14.658C36.7411 15.271 36.6157 15.9257 36.6157 16.6083C36.6157 17.3048 36.7411 17.8759 36.9919 18.2799C37.2288 18.6978 37.5353 19.0043 37.9115 19.1854C38.2877 19.3664 38.6779 19.464 39.0959 19.464C39.4024 19.45 39.709 19.3943 40.0155 19.2968ZM11.967 22.1386C11.9531 22.1525 11.9252 22.1664 11.9113 22.1943C11.9113 22.1943 11.9113 22.1943 11.8974 22.1943C11.9113 22.1804 11.9392 22.1664 11.967 22.1386ZM82.4157 22.1664C81.9698 21.8182 81.6633 21.3724 81.51 20.8152C81.3567 20.2719 81.2871 19.6729 81.3428 19.0321C81.3985 18.4053 81.51 17.7923 81.6911 17.1933L82.569 14.3376C82.7222 13.8919 82.7919 13.46 82.8058 13.0421C82.8198 12.6103 82.7362 12.262 82.555 11.9834C82.36 11.7048 82.0255 11.5516 81.5518 11.5516C81.1617 11.5516 80.7994 11.6491 80.4789 11.858C80.1445 12.0531 79.838 12.3038 79.5732 12.6103C79.2945 12.9167 79.0577 13.2511 78.8487 13.6133L76.1595 22.445H72.1326L74.5989 14.3516C74.7522 13.9058 74.8218 13.4739 74.8218 13.056C74.8358 12.6242 74.7522 12.276 74.5432 11.9973C74.3481 11.7187 74.0137 11.5655 73.5539 11.5655C73.1777 11.5655 72.8154 11.663 72.481 11.872C72.1466 12.067 71.854 12.3177 71.5753 12.6242C71.3106 12.9307 71.0598 13.2511 70.8507 13.5993L68.1337 22.4729H64.1208L68.4124 8.47299H72.4113L71.8679 10.2561C72.2023 9.89388 72.5785 9.57348 72.9965 9.26701C73.4145 8.96055 73.8883 8.70981 74.3899 8.51479C74.8915 8.33369 75.4349 8.22224 76.0201 8.22224C76.884 8.23617 77.5668 8.44514 78.0684 8.86304C78.57 9.28095 78.9044 9.82422 79.0577 10.5068C79.4339 10.061 79.8519 9.67099 80.2978 9.32273C80.7576 8.98841 81.2313 8.70981 81.7608 8.51479C82.2903 8.31976 82.8476 8.22224 83.4607 8.22224C84.4639 8.23617 85.2721 8.48692 85.8712 8.97448C86.4704 9.4481 86.8466 10.1168 86.9999 10.9386C87.1531 11.7745 87.0835 12.7078 86.763 13.7526L85.4393 18.1127C85.3418 18.4331 85.2721 18.7257 85.2442 19.0043C85.2164 19.2829 85.2582 19.5057 85.3557 19.6729C85.4532 19.8401 85.6483 19.9376 85.913 19.9376C86.345 19.9376 86.7909 19.7147 87.2785 19.2829C87.7662 18.851 88.2539 18.2381 88.7694 17.4719C89.0342 17.0679 89.2989 16.6222 89.5776 16.1346C89.6333 15.5217 89.7587 14.9088 89.9538 14.3098C90.2186 13.4879 90.5947 12.7217 91.0964 11.9973C91.584 11.273 92.1832 10.6322 92.8799 10.061C93.5626 9.50382 94.3429 9.05806 95.1929 8.73766C96.0428 8.41727 96.9764 8.25011 97.9517 8.25011C99.1779 8.25011 100.265 8.51478 101.212 9.00234C102.16 9.4899 102.898 10.1864 103.442 11.0779C103.985 11.9695 104.264 13.0143 104.264 14.2123C104.264 14.8252 104.194 15.4381 104.041 16.051C103.887 16.664 103.678 17.2491 103.414 17.8063C104.208 17.5834 104.891 17.2073 105.448 16.6779C105.49 16.6361 105.532 16.5943 105.573 16.5525L105.587 16.5107L109.642 3.26308H113.655L107.775 22.4868H103.762L104.723 19.3386C103.929 19.659 103.038 19.8401 102.034 19.8819C101.533 20.453 100.961 20.9545 100.307 21.3863C99.6656 21.8182 98.9689 22.1386 98.2165 22.3754C97.4641 22.6122 96.6698 22.7376 95.8199 22.7376C94.5658 22.7236 93.4651 22.4729 92.5315 21.9714C91.584 21.4699 90.8595 20.7734 90.33 19.8819C90.1628 19.6033 90.0235 19.2968 89.912 18.9764C89.4661 19.6172 89.0063 20.1744 88.5186 20.6759C87.8777 21.3306 87.2089 21.8321 86.4983 22.1943C85.7876 22.5565 85.0492 22.7376 84.2549 22.7376C83.4746 22.6819 82.8616 22.5008 82.4157 22.1664ZM21.6509 22.0271C20.6617 21.5396 19.8953 20.8431 19.3519 19.9376C18.8224 19.0321 18.5437 17.9456 18.5298 16.6918C18.5298 15.87 18.6552 15.0481 18.8921 14.2401C19.1289 13.4182 19.4773 12.6521 19.9371 11.9277C20.383 11.2033 20.9403 10.5625 21.5952 9.99139C22.2501 9.43418 22.9886 8.98841 23.8107 8.66801C24.6327 8.34761 25.5384 8.18045 26.5417 8.18045C27.3916 8.18045 28.144 8.30583 28.771 8.54264C29.3981 8.77946 29.9275 9.08592 30.3316 9.4899C30.7496 9.87995 31.0562 10.3257 31.2512 10.7993C31.4602 11.273 31.5578 11.7745 31.5578 12.2759C31.5578 12.7774 31.4602 13.265 31.2512 13.7108C31.0562 14.1705 30.7636 14.5326 30.3734 14.8391C29.9972 15.1316 29.5235 15.2849 28.9661 15.2849C28.5481 15.2849 28.1719 15.1874 27.8375 14.9784C27.5031 14.7834 27.2383 14.5187 27.0433 14.1844C26.8482 13.8501 26.7507 13.4739 26.7367 13.056C26.7367 12.6939 26.8203 12.3595 26.9736 12.0531C27.1269 11.7466 27.3359 11.4819 27.6146 11.273C27.3916 11.1615 27.1129 11.1058 26.7925 11.1058C26.2769 11.1058 25.7892 11.259 25.3155 11.5376C24.8418 11.8302 24.4098 12.2063 24.0336 12.7078C23.6574 13.1953 23.3508 13.7526 23.1418 14.3655C22.9189 14.9923 22.8074 15.6331 22.8074 16.3157C22.8074 17.068 22.9607 17.7227 23.2394 18.266C23.532 18.8092 23.9361 19.2411 24.4795 19.5336C25.009 19.8261 25.6778 19.9794 26.4441 19.9794C27.3219 19.9794 28.1719 19.7704 29.0219 19.3664C29.8718 18.9625 30.666 18.3635 31.4045 17.5694C31.8643 17.0958 32.2823 16.5386 32.6725 15.9257C32.7282 15.3545 32.8536 14.7973 33.0348 14.2401C33.2995 13.4182 33.6757 12.6521 34.1773 11.9277C34.6789 11.2033 35.2641 10.5625 35.9608 9.99139C36.6436 9.43418 37.4239 8.98841 38.2877 8.66801C39.1377 8.34761 40.0573 8.18045 41.0466 8.18045C42.2728 8.18045 43.3596 8.44513 44.3071 8.93269C45.2546 9.42025 45.9931 10.1168 46.5365 11.0083C47.066 11.8998 47.3446 12.9446 47.3586 14.1426C47.3586 14.7555 47.2889 15.3685 47.1356 15.9814C46.9824 16.5943 46.7734 17.1794 46.5086 17.7366C46.216 18.2938 45.7841 19.1157 45.1292 19.8261C44.6276 20.3973 44.0563 20.8988 43.4153 21.3306C42.7744 21.7624 42.0777 22.0828 41.3253 22.3197C40.5729 22.5565 39.7786 22.6818 38.9287 22.6818C37.6747 22.6679 36.5878 22.4172 35.6403 21.9157C34.7068 21.4142 33.9683 20.7177 33.4528 19.8261C33.2577 19.5057 33.0905 19.1436 32.979 18.7814C32.4217 19.4918 31.8086 20.1187 31.1398 20.6759C30.3316 21.3306 29.4399 21.846 28.4506 22.2082C27.4613 22.5704 26.3884 22.7654 25.204 22.7654C23.8107 22.7654 22.6402 22.5147 21.6509 22.0271ZM110.436 16.5107L116.288 8.90483H120.998L114.798 16.1764L114.937 17.3883C115.007 17.7923 115.118 18.1824 115.271 18.5585C115.425 18.9346 115.634 19.255 115.898 19.4918C116.163 19.7426 116.497 19.8679 116.888 19.8679C117.375 19.8679 117.877 19.645 118.392 19.2271C118.908 18.8092 119.424 18.2102 119.939 17.4441C120.037 17.2908 120.134 17.1376 120.246 16.9844C120.246 16.8729 120.246 16.7754 120.246 16.664C120.246 15.8282 120.371 15.0063 120.608 14.1844C120.845 13.3625 121.193 12.6103 121.653 11.8859C122.099 11.1615 122.656 10.5207 123.297 9.96352C123.938 9.40631 124.663 8.97448 125.471 8.65409C126.279 8.33369 127.157 8.18046 128.104 8.16653C129.121 8.18046 129.999 8.36155 130.752 8.70981C131.49 9.072 132.047 9.54562 132.452 10.1307C132.842 10.7297 133.051 11.3705 133.051 12.0949C133.051 12.6939 132.897 13.3207 132.591 13.9476C132.284 14.5744 131.797 15.1595 131.128 15.6889C130.459 16.2182 129.581 16.6361 128.508 16.9426C127.435 17.249 126.14 17.3884 124.621 17.3605C124.802 18.1824 125.192 18.8232 125.805 19.2829C126.404 19.7426 127.199 19.9654 128.16 19.9654C129.052 19.9654 129.902 19.7565 130.752 19.3525C131.588 18.9485 132.382 18.3495 133.12 17.5555C133.859 16.7754 134.514 15.8142 135.071 14.672C135.252 14.6859 135.447 14.7277 135.642 14.8113C135.851 14.8948 136.046 14.9923 136.228 15.1038C136.409 15.2152 136.534 15.3267 136.632 15.4381C136.158 16.4829 135.614 17.4441 134.973 18.3217C134.346 19.2132 133.622 19.9794 132.814 20.648C132.006 21.3028 131.114 21.8182 130.125 22.1804C129.135 22.5425 128.062 22.7376 126.878 22.7376C125.513 22.7376 124.342 22.4868 123.353 21.9993C122.364 21.5117 121.597 20.8152 121.054 19.9097C120.97 19.7565 120.887 19.6033 120.817 19.464C117.835 23.7405 112.443 24.9943 110.436 16.5107ZM17.1086 20.4669C17.025 20.8709 16.8856 21.2749 16.7045 21.6928C16.2725 22.6122 15.6873 23.4201 14.9349 24.0888C14.1825 24.7574 13.3047 25.2868 12.3014 25.649C11.3122 26.0112 10.2393 26.1923 9.08277 26.2062C7.89841 26.2062 6.81158 25.9972 5.82229 25.6072C4.84693 25.2172 3.98304 24.6739 3.25849 23.9774C2.53394 23.2808 1.9766 22.459 1.58645 21.5396C1.19631 20.6062 0.987305 19.6033 0.987305 18.5167C0.987305 17.4859 1.16844 16.5386 1.51678 15.6749C1.86513 14.8113 2.33887 14.059 2.95195 13.4043C3.56503 12.7496 4.24778 12.2063 5.01414 11.8023C5.78049 11.3844 6.58864 11.1197 7.4386 10.9804C7.09025 10.4511 6.83945 9.87995 6.67224 9.29488C6.50504 8.70981 6.42144 8.1108 6.42144 7.48394C6.42144 6.64813 6.57471 5.84018 6.86731 5.07401C7.15992 4.30785 7.59187 3.61133 8.16315 2.9984C8.73443 2.38547 9.43111 1.89792 10.2532 1.54966C11.0753 1.18747 12.0228 1.00637 13.0817 1.00637C14.0153 1.00637 14.8513 1.1596 15.5619 1.45214C16.2865 1.73074 16.8856 2.1208 17.3733 2.59443C17.861 3.06806 18.2372 3.61133 18.488 4.1964C18.7388 4.78147 18.8642 5.39441 18.8642 6.00734C18.8642 6.53669 18.7667 7.06604 18.5855 7.59538C18.4741 7.90185 18.3347 8.20831 18.1536 8.48692C18.1257 8.52871 18.0839 8.58443 18.0561 8.62622C17.9725 8.76552 17.8749 8.89089 17.7634 9.01627C15.5759 11.5794 11.6187 9.32273 12.9563 6.88494C13.4022 7.2332 14.28 7.38643 14.907 7.06604C15.0324 7.01032 15.1439 6.92673 15.2415 6.82922C15.4644 6.57847 15.5898 6.27201 15.5898 5.90983C15.5898 5.60336 15.4923 5.31083 15.3251 5.03222C15.1439 4.75362 14.8931 4.53073 14.5587 4.36357C14.2243 4.1964 13.8063 4.09889 13.3465 4.09889C12.6777 4.11282 12.1064 4.29392 11.6326 4.62825C11.1589 4.9765 10.7966 5.42226 10.5458 5.97947C10.295 6.53668 10.1696 7.13568 10.1696 7.77647C10.1696 8.62622 10.4065 9.44811 10.922 10.2561C11.0613 10.479 11.2286 10.6879 11.4097 10.8829C11.6048 11.1058 11.8416 11.3287 12.1064 11.5237C12.1064 11.5376 12.1482 11.5655 12.2039 11.6073C12.4686 11.8302 12.7613 12.0252 13.0817 12.2063C13.0817 12.2063 13.1235 12.2342 13.1653 12.262C13.8202 12.6381 14.5448 12.9167 15.2693 13.07C13.9456 14.867 11.5351 14.5884 10.086 13.5993V13.5854C9.34751 13.6272 8.67869 13.7943 8.07954 14.073C7.4804 14.3655 6.96485 14.7416 6.53291 15.2013C6.08703 15.6331 5.76655 16.1625 5.52968 16.7476C5.30674 17.3466 5.18134 17.9456 5.18134 18.6003C5.18134 19.4361 5.36248 20.1883 5.72475 20.8431C6.0731 21.5117 6.57471 22.0411 7.20172 22.4311C7.82874 22.8211 8.55329 23.0162 9.37538 23.0301C10.1278 23.0301 10.8105 22.849 11.4236 22.5147C11.5769 22.4311 11.7302 22.3197 11.8695 22.2082C11.8695 22.2082 11.8695 22.2082 11.8834 22.2082C14.1407 20.2301 11.6605 15.8978 7.85661 19.0321C8.8459 14.4351 13.7227 14.7416 15.2833 17.0958C15.3529 17.1097 15.4226 17.1237 15.4783 17.1376C15.3251 16.0232 15.7152 15.2849 16.4258 14.672C17.2479 16.3854 17.5544 18.4749 17.1086 20.4669ZM51.8731 26.7077C52.8484 27.0559 53.9213 27.237 55.0918 27.237C56.3597 27.237 57.5162 27.0281 58.5891 26.6102C59.662 26.2062 60.5956 25.6351 61.3898 24.8968C62.184 24.1724 62.811 23.3226 63.2569 22.3614C63.7028 21.4003 63.9257 20.3694 63.9257 19.2689C63.9257 18.266 63.7306 17.3048 63.3823 16.3993C63.02 15.4799 62.5463 14.5884 61.9471 13.7526C61.348 12.9028 60.6792 12.0949 59.9546 11.3148C59.6341 10.9665 59.2858 10.6043 58.9235 10.2282C58.5612 9.85208 58.2268 9.46204 57.9064 9.05807C57.5859 8.65409 57.3351 8.23618 57.1261 7.81827C56.931 7.38644 56.8195 6.94066 56.8195 6.48096C56.8195 6.04912 56.9171 5.63122 57.1261 5.22725C57.3351 4.82327 57.6416 4.48894 58.0596 4.22427C58.4776 3.95959 59.0071 3.82029 59.6481 3.82029C60.1218 3.82029 60.5538 3.90387 60.93 4.0571C61.3062 4.21033 61.6127 4.41929 61.8496 4.67003C62.0865 4.92078 62.2397 5.21331 62.3094 5.51978C61.8635 5.7148 61.5152 6.00734 61.2504 6.39738C60.9857 6.78743 60.8603 7.2332 60.8464 7.73468C60.8464 8.19438 60.9578 8.59837 61.1808 8.96055C61.3898 9.32274 61.6824 9.61527 62.0447 9.82422C62.4069 10.0332 62.811 10.1446 63.2708 10.1446C63.8839 10.1446 64.4134 9.97746 64.8314 9.64313C65.2633 9.32274 65.5838 8.89089 65.8068 8.37548C66.0297 7.86006 66.1412 7.30285 66.1412 6.70385C66.1412 6.06306 66.0018 5.42226 65.7371 4.75361C65.4723 4.08496 65.0683 3.47203 64.5249 2.90089C63.9814 2.32975 63.2848 1.87005 62.4487 1.52179C61.6127 1.15961 60.6234 0.992446 59.4809 0.978516C58.3801 0.978516 57.4187 1.15961 56.5966 1.49394C55.7606 1.82826 55.0639 2.28796 54.4926 2.8591C53.9213 3.43024 53.5033 4.09889 53.2107 4.82327C52.9181 5.56157 52.7788 6.34167 52.7788 7.16355C52.7788 7.91578 52.9042 8.59836 53.1271 9.22522C53.3501 9.85208 53.6566 10.4511 54.0328 11.0222C54.409 11.5794 54.8549 12.1366 55.3426 12.666C55.8302 13.1953 56.3458 13.7526 56.8892 14.2958C57.767 15.1734 58.4358 16.0371 58.9235 16.8729C59.4112 17.7227 59.6481 18.5864 59.662 19.45C59.662 19.9794 59.5645 20.5087 59.3555 21.0381C59.1604 21.5674 58.8678 22.0411 58.4776 22.4729C58.1014 22.9047 57.6138 23.253 57.0425 23.5177C56.4712 23.7823 55.8163 23.9077 55.0639 23.9216C54.2279 23.9077 53.5033 23.7405 52.8763 23.4202C52.2493 23.0998 51.7477 22.6679 51.3993 22.1525C51.0371 21.6231 50.8559 21.0659 50.8559 20.4669C50.8559 20.0351 50.9535 19.659 51.1346 19.3525C51.3157 19.0461 51.5526 18.8092 51.8313 18.6421C51.9706 18.5585 52.096 18.5028 52.2354 18.4749C52.2772 18.447 52.5837 18.4053 52.6952 18.4053C53.7123 18.3495 55.036 18.9207 55.3704 19.9794C57.0564 17.653 55.9974 14.6719 52.8484 14.4491C52.7091 14.4351 52.5837 14.4351 52.4026 14.4351C51.7198 14.4351 51.051 14.5744 50.424 14.8252C49.797 15.0899 49.2257 15.466 48.7241 15.9675C48.2225 16.469 47.8184 17.068 47.5258 17.7784C47.2332 18.4749 47.0799 19.2689 47.0799 20.1744C47.0799 21.1913 47.2889 22.1246 47.679 22.9744C48.0692 23.8381 48.6126 24.5764 49.3372 25.2172C50.0617 25.8579 50.8977 26.3455 51.8731 26.7077Z" fill="white"/>
</svg>
